<?xml version="1.0" encoding="UTF-8"?>
<svg id="b" data-name="Layer 2" xmlns="http://www.w3.org/2000/svg" viewBox="0 0 58.77 42.08">
  <defs>
    <style>
      .d {
        fill: #1b365d;
        stroke-width: 0px;
      }
    </style>
  </defs>
  <g id="c" data-name="Layer 1">
    <path class="d" d="M57.45,5.88c-.88-1.2-2.13-2.24-3.75-3.12-1.62-.88-3.57-1.55-5.85-2.01-2.28-.46-4.84-.69-7.68-.69h-6.87c-1.58,0-3.17-.08-4.75-.05-.62.01-1.26.12-1.76.47-1.26.88-1.31,2.78-1.31,4.15v7.07c-.8,1.93-1.97,3.55-3.51,4.85-1.56,1.32-3.29,2.47-5.19,3.45-1.9.98-3.84,1.86-5.82,2.64-1.98.78-3.78,1.6-5.4,2.46-1.62.86-2.95,1.84-3.99,2.94-1.04,1.1-1.56,2.47-1.56,4.11,0,1.52.44,2.88,1.32,4.08.88,1.2,2.13,2.24,3.75,3.12,1.62.88,3.57,1.55,5.85,2.01,2.28.46,4.84.69,7.68.69h9.54c1.45,0,2.71.2,3.94-.69.8-.58,1.04-1.23,1.09-2.2.04-.8.13-1.61.13-2.41,0-1,0-2.01,0-3.01v-3.33c.8-1.93,1.97-3.55,3.51-4.85,1.56-1.32,3.29-2.47,5.19-3.45,1.9-.98,3.84-1.86,5.82-2.64,1.98-.78,3.78-1.6,5.4-2.46,1.62-.86,2.95-1.84,3.99-2.94,1.04-1.1,1.56-2.47,1.56-4.11,0-1.52-.44-2.88-1.32-4.08ZM22.02,41.16c-4.28,0-7.62-.8-10.02-2.4-2.4-1.6-3.6-3.82-3.6-6.66,0-1.76.31-3.23.93-4.41.62-1.18,1.43-2.22,2.43-3.12,1-.9,2.13-1.7,3.39-2.4,1.26-.7,2.52-1.43,3.78-2.19,1.26-.76,2.47-1.6,3.63-2.52.01,0,.02-.02.03-.03,1.16-.93,2.87-.17,2.87,1.32v18.96c0,1.9-1.54,3.45-3.45,3.45h0ZM49.44,14.43c-.62,1.18-1.43,2.22-2.43,3.12-1,.9-2.13,1.7-3.39,2.4-1.26.7-2.52,1.43-3.78,2.19-1.26.76-2.47,1.6-3.63,2.52-.01,0-.02.02-.03.03-1.16.93-2.87.17-2.87-1.32V4.4c0-1.9,1.54-3.45,3.45-3.45h0c4.28,0,7.62.8,10.02,2.4,2.4,1.6,3.6,3.82,3.6,6.66,0,1.76-.31,3.23-.93,4.41Z"/>
  </g>
</svg>