<?xml version="1.0" encoding="UTF-8"?>
<svg id="b" data-name="Layer 2" xmlns="http://www.w3.org/2000/svg" viewBox="0 0 163.34 91.91">
  <defs>
    <style>
      .d {
        fill: #231f20;
        stroke-width: 0px;
      }
    </style>
  </defs>
  <g id="c" data-name="Layer 1">
    <g>
      <path class="d" d="M153.02,66.32c.49,1.14,2.12,1.09,2.54-.08.48-1.35.97-2.71,1.45-4.06.99-2.77,1.99-5.55,2.98-8.32l1.41-3.95c.34-.96.76-1.92,1.02-2.9.06-.23.11-.46.32-.6.13-.09.32-.11.43,0,.07.06.1.14.12.23.13.51-.22.97-.38,1.43l-.87,2.5-2.42,6.92-2.81,8.03-2.59,7.41c-.59,1.68-1.18,3.37-1.77,5.05-.14.4-.28.8-.42,1.2-.4,1.16-.85,2.3-1.36,3.42-.86,1.92-1.88,3.77-3.12,5.47-.4.55-.75,1.07-1.3,1.48s-1.17.72-1.8.98c-1.43.59-2.93,1.19-4.48,1.36-1.79.19-3.42-.27-5.02-1.05-.89-.43-1.66-.9-2.24-1.7-1.1-1.5-1.03-3.68-1.27-5.45-.12-.88-.04-1.73.24-2.55.28-.82.69-1.55,1.23-2.19.54-.64,1.19-1.16,1.95-1.56.76-.4,1.58-.6,2.46-.6,1.28,0,2.42.33,3.42.99,1,.66,1.92,1.4,2.76,2.22.84.82,1.61,1.56,2.31,2.22.7.66,1.39.99,2.07.99.52,0,1.03-.2,1.53-.6.5-.4.83-.86.99-1.38l1.06-3.39c.28-.88-.38-1.77-1.3-1.77-.55,0-1.04-.33-1.26-.83l-11.62-27.27c-.38-.9.28-1.9,1.26-1.9h4.84c.55,0,1.04.32,1.25.83l8.36,19.45ZM149.89,82.52c-.32.32-.66.56-1.02.72-.36.16-.7.24-1.02.24-.72,0-1.45-.33-2.19-.99-.74-.66-1.52-1.4-2.34-2.22s-1.71-1.56-2.67-2.22c-.96-.66-2.04-.99-3.24-.99-.84,0-1.63.18-2.37.54s-1.37.85-1.89,1.47c-.52.62-.91,1.33-1.17,2.13-.26.8-.33,1.62-.21,2.46.28,2.12,1.07,3.79,2.37,5.01,1.3,1.22,2.97,1.83,5.01,1.83,2.4,0,4.46-.62,6.18-1.86,1.72-1.24,3.24-3.28,4.56-6.12Z"/>
      <path class="d" d="M41.77,42h-5.19c-.47,0-.84-.38-.83-.84.04-2.11-.06-7.49-.06-7.92-.01-4.36-.04-8.72-.01-13.08,0-.66,0-1.32.54-1.8.67-.6,1.75-.9,2.53-1.36.99-.58,1.88-1.32,2.77-2.06.26-.21,1.04-1.36,1.44-.87.13.15.13.37.12.57,0,3.59-.19,7.19-.19,10.78,0,3.98,0,7.95,0,11.93,0,1.18,0,2.36,0,3.53,0,.62-.5,1.12-1.12,1.12Z"/>
      <path class="d" d="M65.9,14.12s.03.02.04.03c.02.03,0,.07,0,.1-.22.62-.6,1.2-.95,1.75-.44.69-.88,1.37-1.32,2.06-.11.18-.23.36-.34.53-1.07,1.69-2.15,3.37-3.27,5.03-.17.25-.34.52-.34.81,0,.3.16.57.32.82,3.23,5.04,6.47,10.09,9.7,15.13.24.37.47.85.23,1.21-.21.31-.64.34-1.01.34-2.11,0-4.22.01-6.32.02-.34,0-.69,0-.98-.16-.3-.16-.5-.46-.68-.74-2.5-3.86-5.01-7.71-7.51-11.57-.11-.17-.24-.36-.43-.42-.38-.13-.74.25-.96.59-1.44,2.18-2.89,4.37-4.33,6.55-.72,1.09-1.44,2.18-2.17,3.28-.5.76-1.08,1.76-1.79,2.33-.64.52-.69-2.05-.68-2.26.02-.91-.02-2.22.39-3.06.37-.75.88-1.47,1.32-2.18,1.51-2.44,3.01-4.87,4.52-7.31.29-.47.58-.94.68-1.48.21-1.09-.38-2.15-.95-3.09-1.02-1.7-2.05-3.4-3.07-5.1-.34-.56-2.41-3.13-1.05-3.47.48-.12,1.02,0,1.51.04,1.24.07,2.5.02,3.74.04,1.03,0,2.02-.07,2.86.63.82.69,1.26,1.72,1.82,2.6,1.05,1.64,2.09,3.29,3.14,4.93.28.44.72.95,1.22.8.27-.08.45-.34.61-.57.98-1.45,1.93-2.92,2.89-4.38.5-.76,1.01-1.53,1.51-2.29.39-.59.72-1.6,1.59-1.55.02,0,.04,0,.06,0Z"/>
      <path class="d" d="M95.96,19.54c-.41-1.15-1.01-2.26-1.92-3.09-1.39-1.28-3.29-1.73-5.07-2.15-2.08-.49-4.22-.72-6.36-.78-1.11-.03-2.21,0-3.31.09-1.66.14-3.3.44-4.95.66-1.64.22-3.28.58-4.76,1.34-4.62,2.37-7.27,8.07-5.33,13.03.64,1.63,1.66,3.21,2.62,4.67.95,1.46,2.05,2.84,3.38,3.98,1.16.99,2.42,1.86,3.77,2.56,2.67,1.4,5.67,2.15,8.66,2.15,1.8,0,3.4-.18,4.8-.54,1.4-.36,2.68-.95,3.84-1.77,1.16-.82,2.22-1.87,3.18-3.15.23-.3.45-.62.66-.93.11-.17.22-.33.32-.5.06-.1.18-.2.17-.33,0-.05-.03-.1-.06-.14-.06-.08-.16-.14-.26-.12-.18.04-.27.3-.37.43-.14.19-.28.38-.42.56-.27.35-.55.68-.85,1.01-.52.57-1.08,1.09-1.71,1.55-1.68,1.22-3.66,1.83-5.94,1.83s-5.27-.61-6.79-2.44c-.99-1.2-1.23-2.89-.94-4.43.44-2.39,1.77-4.84,3.93-6.06.78-.44,1.6-.85,2.48-1.01,1.38-.26,2.85,0,4.25-.04,1.93-.06,4.54.52,6.23-.63.66-.45,1.15-1.13,1.33-1.9.29-1.24-.16-2.68-.58-3.85ZM82.51,22.44c-1.38.66-3.02,1.42-4.56.98-.3-.09-.63-.19-.92-.36-.84-.48-.88-1.51-.47-2.3.39-.75,1.15-1.33,1.96-1.57.99-.29,2.13-.29,3.08.13.76.33,1.72,1.23,1.64,2.13-.04.47-.32.8-.72.99Z"/>
      <path class="d" d="M104.29,11.68c0-3.59.19-7.19.19-10.78,0-.2,0-.41-.12-.57-.4-.49-1.19.66-1.44.87-.88.73-1.77,1.47-2.77,2.06-.78.46-1.85.75-2.53,1.36-.53.48-.54,1.14-.54,1.8-.03,4.36,0,8.72.01,13.08,0,.44.1,6.1-.08,15.94l-.08.07v3.88c-.01.58-.03,1.16-.04,1.77,0,.09.03.17.04.25v6.41c-.48-.92-1.14-1.77-1.98-2.55-1.2-1.12-2.75-2.25-4.3-2.81-1.2-.43-2.61-.03-3.82.21-1.52.31-3.1.36-4.63.15-1.01-.14-2.02-.4-3.03-.3-2.18.2-4.45,1.87-5.98,3.35-1.44,1.38-2.56,3.01-3.36,4.89-.8,1.88-1.2,3.96-1.2,6.24s.39,4.44,1.17,6.36,1.9,3.55,3.36,4.89c1.46,1.34,3.22,2.38,5.28,3.12s4.35,1.11,6.87,1.11,4.71-.59,6.81-1.77c2.1-1.18,2.87-1.12,4.83-3.41v1.52c0,1.12.22,1.92.66,2.4.44.48,1.16.72,2.16.72h2.46c1.06,0,1.92-.86,1.92-1.92v-32.7c.16-10.96.16-12.33.16-13.69,0-3.98,0-7.95,0-11.93ZM96.93,62.55c0,.82-.27,1.63-.78,2.27-.83,1.03-1.86,1.9-3.08,2.6-1.67.96-3.61,1.42-5.54,1.37-1.55-.04-2.97-.31-4.28-.84-1.4-.56-2.6-1.36-3.6-2.4-1-1.04-1.78-2.29-2.34-3.75-.56-1.46-.84-3.07-.84-4.83s.28-3.37.84-4.83c.56-1.46,1.34-2.71,2.34-3.75,1-1.04,2.2-1.84,3.6-2.4,1.31-.52,2.74-.8,4.29-.84,1.93-.04,3.86.42,5.53,1.38,1.15.66,2.12,1.46,2.92,2.41.63.75.94,1.72.94,2.71v10.9Z"/>
      <g>
        <path class="d" d="M112.66,55.23c0-3.59.19-7.19.19-10.78,0-.2,0-.41-.12-.57-.4-.49-1.19.66-1.44.87-.88.73-1.77,1.47-2.77,2.06-.78.46-1.85.75-2.53,1.36-.53.48-.54,1.14-.54,1.8-.03,4.36,0,8.72.01,13.08,0,.42.1,5.81.06,7.92,0,.47.37.84.83.84h5.19c.62,0,1.12-.5,1.12-1.12,0-1.18,0-2.36,0-3.53,0-3.98,0-7.95,0-11.93Z"/>
        <path class="d" d="M106.48,42.78c.31.76.87,1.03,1.66.97.81-.07,1.81-.16,2.6-.36.25-.07.47-.16.62-.32.51-.55-.3-1.33-.19-1.96.05-.27.14-.54.15-.81,0-.45-.23-.86-.47-1.24-.68-1.06-1.59-1.07-2.76-1.09-.49,0-1.01.01-1.43.26-1.19.7-.43,1.84-.35,2.84.04.58-.05,1.16.18,1.71Z"/>
      </g>
      <path class="d" d="M49.66,48.86c.03-.46-.04-.95-.19-1.39-.7-2.15-2.89-3.62-5.14-3.83s-4.51.7-6.28,2.11-3.1,3.3-4.25,5.25c-.16.27-.48.57-.72.38-.13-.1-.13-.29-.13-.45.06-2.42.11-4.85.17-7.27,0-.22,0-.45-.11-.63-.43-.66-1.98,1.23-2.36,1.54-.95.76-1.99,1.41-3.1,1.92-.64.3-1.35.6-1.67,1.23-.21.41-.21.89-.21,1.35.03,6.73.06,13.46.1,20.19,0,.42.02.87.28,1.19.34.41.94.44,1.47.44,1.19,0,2.38,0,3.57,0,.35,0,.73,0,1.04-.17.67-.35.79-1.24.81-2,.09-3.4-.3-6.81.06-10.19s1.59-6.86,4.26-8.97c.99-.78,2.17-1.35,3.42-1.48.37-.04.76-.04,1.1.11,1.08.44,1.24,1.92,2.08,2.72.84.8,2.17.76,3.29.46.84-.23,1.71-.61,2.17-1.36.21-.34.32-.73.35-1.14Z"/>
      <path class="d" d="M55.44,48.1c-.96,0-1.93.05-2.87.24-.63.13-1.39.27-1.88.72-.58.54-.81,1.3-1.28,1.92-.29.37-.67.68-1.09.88-.47.22-1,.22-1.47.43-.5.22-.96.55-1.26,1.01-.25.37-.39.83-.55,1.24-.3.79-.44,1.63-.53,2.47s-.23,1.66-.23,2.48c0,6.29,5,11.39,11.16,11.39s11.16-5.1,11.16-11.39-5-11.39-11.16-11.39ZM55.43,64.42c-.43-.02-.83-.03-1.21-.03-.84,0-1.71-.08-2.42-.53-.77-.48-1-1.17-1.31-1.97-.4-1.05-1.04-2-1.29-3.11-.18-.82-.09-1.73.43-2.39.42-.52,1.04-.78,1.55-1.19s.9-.95,1.49-1.25c.35-.18.74-.26,1.13-.34,1.32-.27,2.74-.62,4.07-.25,2.71.77,4.58,3.38,4.58,6.13,0,1.55-.02,3.68-1.64,4.46-1.49.72-3.6.55-5.38.47Z"/>
      <path class="d" d="M41.92,5.82c-.88-1.2-2.13-2.24-3.75-3.12-1.62-.88-3.57-1.55-5.85-2.01-2.28-.46-4.84-.69-7.68-.69h-13.94c-.42,0-.76.34-.76.76v27.9H.76c-.42,0-.76.34-.76.76v40.49c0,.42.34.76.76.76h6.29c.42,0,.76-.34.76-.76v-10.66c0-.11.02-.21.06-.31.8-1.89,1.96-3.48,3.48-4.77,1.56-1.32,3.29-2.47,5.19-3.45,1.9-.98,3.84-1.86,5.82-2.64,1.98-.78,3.78-1.6,5.4-2.46,1.62-.86,2.95-1.84,3.99-2.94,1.04-1.1,1.56-2.47,1.56-4.11,0-1.52-.44-2.88-1.32-4.08-.88-1.2-2.13-2.24-3.75-3.12-1.62-.88-3.57-1.55-5.85-2.01-1.21-.24-2.49-.42-3.86-.53.73-1.27,1.64-2.37,2.75-3.32,1.56-1.32,3.29-2.47,5.19-3.45,1.9-.98,3.84-1.86,5.82-2.64,1.98-.78,3.78-1.6,5.4-2.46,1.62-.86,2.95-1.84,3.99-2.94,1.04-1.1,1.56-2.47,1.56-4.11,0-1.52-.44-2.88-1.32-4.08ZM19.05,30.8c1.76.69,3.43,1.76,4.51,3.31.94,1.35,1.39,3.02,1.39,4.67,0,1.79-.52,3.57-1.47,5.08-1.44,2.27-3.76,3.82-6.09,5.15-2.33,1.33-4.78,2.55-6.73,4.39-.47.44-1,.95-1.64.88-.49-.06-.88-.47-1.06-.93s-.18-.97-.18-1.46c0-3.66,0-7.33,0-10.99,0-1.99,0-3.98,0-5.97,0-1,0-1.99,0-2.99,0-.52,0-1.04,0-1.55,0-.41-.06-.61.08-.72.07-.05.18-.08.36-.11.54-.07,1.11-.1,1.69-.11v11.78c0,.42.34.76.76.76h6.29c.42,0,.76-.34.76-.76v-10.66c0-.07.02-.14.04-.21.43.12.85.27,1.27.43ZM33.41,15.21c-1.44,2.27-3.76,3.82-6.09,5.15-2.33,1.33-4.78,2.55-6.73,4.39-.47.44-1,.95-1.63.88-.49-.06-.88-.47-1.06-.93s-.18-.97-.18-1.46c0-3.66,0-7.33,0-10.99,0-1.99,0-3.98,0-5.97,0-1,0-1.99,0-2.99,0-.52,0-1.04,0-1.55,0-.41-.06-.61.08-.72.07-.05.18-.08.36-.11,1.75-.24,3.74-.06,5.49.09,1.81.15,3.61.48,5.3,1.14,1.76.69,3.43,1.76,4.51,3.31.94,1.35,1.39,3.02,1.39,4.67,0,1.79-.52,3.57-1.47,5.08ZM41.46,12.81c-.15.16-.36.25-.62.32-.79.21-1.79.3-2.6.36-.79.06-1.35-.21-1.66-.97-.22-.56-.13-1.13-.18-1.71-.07-1-.84-2.14.35-2.84.42-.25.94-.27,1.43-.26,1.17.02,2.08.04,2.76,1.09.24.38.48.79.47,1.24,0,.28-.11.54-.15.81-.1.63.7,1.4.19,1.96Z"/>
      <path class="d" d="M130.65,58.54c-1.08,0-2.09.07-3.02.22-.94.14-1.82.32-2.65.51-.83.2-1.6.37-2.32.51-.72.14-1.42.22-2.11.22-.97,0-1.78-.19-2.43-.57-.65-.38-1.1-.85-1.35-1.43-.25-.58-.31-1.22-.16-1.94.09-.46.27-.95.53-1.34.34-.51,1.17-.4,1.62-.18.7.35,1.46.61,2.22.82,1.19.32,2.45.49,3.78.49,1.73,0,3.36-.29,4.89-.86.95-.36,1.95-.81,2.77-1.42.97-.74,1.66-1.8,2.04-2.95.26-.78.4-1.61.53-2.42.06-.35.1-.7.15-1.05.23-1.92.26-3.9.01-5.82-.01-.09-.02-.18-.04-.27-.13-.9-.34-1.79-.67-2.63-.14-.36-.28-.82-.55-1.1-.15-.15-.57-.44-.41-.7.18-.29.74-.13,1.02-.14.39,0,.78-.06,1.15-.19.72-.26,1.35-.82,1.55-1.55.11-.4.07-.85-.17-1.18-.72-.96-2.25.2-3,.56-.55.26-1.1.32-1.68.48-.85.23-1.65.33-2.4.3-1.62-.65-3.35-.97-5.18-.97-2.16,0-4.17.45-6.02,1.35-.26.13-.51.29-.72.48-.89.81-1.58,1.8-2.04,2.91-.71,1.7-1.04,3.56-1.12,5.37-.04.93.08,2.44.24,3.36.25,1.52.6,3.03.95,4.53.1.44.35.85.41,1.28.01.09.02.17.03.25.01.17,0,.31-.12.46-.18.24-.42.44-.61.67-.39.48-.73,1.01-1.01,1.56-.52,1.03-.83,2.06-.92,3.11-.09,1.04.04,2.03.38,2.97.34.94.91,1.69,1.7,2.27,1.55,1.15,3.28,1.73,5.18,1.73,1.08,0,2.16-.1,3.24-.3,1.08-.2,2.2-.42,3.35-.67,1.15-.25,2.35-.48,3.59-.67,1.24-.2,2.53-.3,3.86-.3,1.76,0,3.14.37,4.13,1.11.99.74,1.49,1.79,1.49,3.16,0,1.55-.63,2.82-1.89,3.81-1.26.99-2.86,1.48-4.81,1.48-2.7,0-5.1-.59-7.21-1.78-.79-.45-1.58-.96-2.28-1.55-.55-.47-.95-1.09-1.54-1.52-1.19-.85-2.59-.36-3.38.79-.78,1.15-.07,2.91.61,3.94.61.92,1.47,1.34,2.24,2.06.55.51,1.15.71,1.89.95,1.58.52,3.67.78,6.26.78,3.49,0,6.18-.82,8.07-2.46,1.89-1.64,2.83-3.93,2.83-6.88,0-6.41-3.64-9.61-10.91-9.61ZM121.24,41.37c.67-.94,1.69-1.03,2.75-1.09.77-.05,1.55,0,2.29.19,1.14.31,2.99,1,3.19,2.32.12.81-.14,1.6-.15,2.41,0,.58.25,1.1.32,1.66.11.91-.22,1.79-.97,2.27-.09.06-.19.11-.29.16-1.07.49-2.51.74-3.67.83-1.18.1-3.27-.67-3.73-1.82-.34-.84.16-2.19.09-3.06-.1-1.28-.66-2.73.16-3.88Z"/>
    </g>
  </g>
</svg>